<?xml version="1.0" ?>
<svg id="Layer_2" style="enable-background:new 0 0 32 32;" version="1.1" viewBox="0 0 32 32" xml:space="preserve" xmlns="http://www.w3.org/2000/svg" xmlns:xlink="http://www.w3.org/1999/xlink">
<g>
<path d="M16,0.5c-1.06805,0-1.93751,0.86896-1.93751,1.9375v14.41864l-2.58361-2.58313   c-0.89685-0.87183-2.04913-0.64996-2.71893,0.01984c-0.67078,0.6698-0.89307,1.81879-0.01514,2.7251l5.87872,5.87921   c0.35004,0.3623,0.82965,0.56427,1.35095,0.56854c0.00568,0,0.01038,0,0.01605,0c0.52032,0,1.02271-0.20483,1.37933-0.56244   l5.89105-5.89099c0.87036-0.90112,0.64801-2.05054-0.02081-2.72034c-0.66888-0.66937-1.8183-0.88977-2.72461-0.01373   l-2.57801,2.57794V2.4375C17.93749,1.36896,17.06812,0.5,16,0.5z" fill="#FFFFFF"/>
<path d="M4.22931,19.59589c-1.06805,0-1.9375,0.86896-1.9375,1.9375v2.14374c0,4.31354,3.50891,7.82288,7.82288,7.82288h11.77069   c4.31396,0,7.82281-3.50934,7.82281-7.82288v-2.14374c0-1.06854-0.86938-1.9375-1.9375-1.9375   c-1.06805,0-1.9375,0.86896-1.9375,1.9375v2.14374c0,2.17688-1.771,3.94788-3.94781,3.94788H10.11469   c-2.17688,0-3.94788-1.771-3.94788-3.94788v-2.14374C6.16681,20.46484,5.29742,19.59589,4.22931,19.59589z" fill="#FFFFFF"/>
</g>
</svg>